<svg xmlns="http://www.w3.org/2000/svg" xmlns:xlink="http://www.w3.org/1999/xlink" viewBox="0 0 192.63 198.76">
  <defs>
    <style>
      .cls-1,
      .cls-5,
      .cls-9 {
        fill: none;
      }

      .cls-2 {
        fill: #ffb953;
      }

      .cls-3 {
        clip-path: url(#clip-path);
      }

      .cls-4 {
        fill: #fff;
      }

      .cls-5 {
        stroke: #c9c9c9;
      }

      .cls-5,
      .cls-9 {
        stroke-miterlimit: 10;
      }

      .cls-6 {
        fill: #c9c9c9;
      }

      .cls-7 {
        fill: #e2e6eb;
      }

      .cls-8 {
        fill: #151516;
      }

      .cls-9 {
        stroke: #fff;
      }

      .cls-10 {
        fill: #e8e7e2;
      }

      .cls-11 {
        fill: #242627;
      }
    </style>
    <clipPath id="clip-path">
      <path class="cls-1"
        d="M192.63,96.32a96.31,96.31,0,0,1-96.31,96.31C43.12,192.63,0,143.35,0,90.16S43.12,0,96.32,0A96.31,96.31,0,0,1,192.63,96.32Z" />
    </clipPath>
  </defs>
  <title>资源 5</title>
  <g id="图层_2" data-name="图层 2">
    <g id="图层_1-2" data-name="图层 1">
      <path class="cls-2"
        d="M192.63,96.32a96.31,96.31,0,0,1-96.31,96.31C43.12,192.63,0,143.35,0,90.16S43.12,0,96.32,0A96.31,96.31,0,0,1,192.63,96.32Z" />
      <path class="cls-1"
        d="M192.63,96.32a96.31,96.31,0,0,1-96.31,96.31C43.12,192.63,0,143.35,0,90.16S43.12,0,96.32,0A96.31,96.31,0,0,1,192.63,96.32Z" />
      <path class="cls-1"
        d="M192.63,96.32a96.31,96.31,0,0,1-96.31,96.31C43.12,192.63,0,143.35,0,90.16S43.12,0,96.32,0A96.31,96.31,0,0,1,192.63,96.32Z" />
      <g class="cls-3">
        <path class="cls-4"
          d="M86.17,123.54s.48,14.48-5.9,20.86c-.93.92-7.56,11.57-6.72,12.15,4.93,3.43,51.14,2.3,51.14,2.3s-5.76-10.82-6.12-11.63c-1.85-4.21-8.42-17.59-4.22-23.68Z" />
        <path class="cls-2" d="M83.58,137.9s18.36-3.17,23-9.33c0,0-11.9,1.7-21.42-1.87Z" />
        <path class="cls-4"
          d="M65,82.2s3.26,39.35,24.85,46.2c6.76,2.15,14.91,2.14,21.45-.72a32.11,32.11,0,0,0,8.38-5.89c5.86-5.4,8.46-13.12,10.57-20.41.72-2.49,1.37-5,2-7.51.36-1.46.7-2.93,1-4.39s1.23-3.46,1.06-4.85l-1.51-12.26-19.5-20.23s-41.56,1.77-41.21,1.77S65,82.2,65,82.2Z" />
        <path class="cls-4" d="M86.53,113.65a27.63,27.63,0,0,0,23.19,0" />
        <polyline class="cls-5" points="96.32 97.95 96.32 108.59 101.27 108.59" />
        <circle class="cls-4" cx="86.14" cy="96.76" r="2.44" />
        <circle class="cls-4" cx="111.45" cy="96.76" r="2.44" />
        <path class="cls-4" d="M73.61,111s-3.91,2.86-8.49-.77-4.86-11.69-2-14.14,7.28-.83,7.28-.83Z" />
        <path class="cls-4" d="M125.24,110.16a7.3,7.3,0,0,0,8.78-.24c4.68-3.44,5.46-11.42,2.84-13.93s-7-1.06-7-1.06Z" />
        <path class="cls-6"
          d="M63.81,100.81a3.27,3.27,0,0,1,3.89.77,2.15,2.15,0,0,1,.55,1.33l-.06,0a4.21,4.21,0,0,0-1.94-1.52,6.57,6.57,0,0,0-2.44-.54Z" />
        <path class="cls-6"
          d="M131.46,103.35a3.64,3.64,0,0,1,2-2.18,3.69,3.69,0,0,1,1.51-.33,2.53,2.53,0,0,1,1.48.47v.07a4.83,4.83,0,0,0-2.67.47,8.12,8.12,0,0,0-2.26,1.55Z" />
        <path class="cls-7"
          d="M80.27,139.38s3.1,7.13,14.54,11.07,22.81-8.56,22.26-11.88L137.66,148l7.42,25.18-1,23.17-79.27-.54,2.83-52.14Z" />
        <path class="cls-8" d="M116.27,198.76s6.23-54.47,5.77-60.19c0,0,32.39,9.55,35,19.33s10.44,39.63,10.44,39.63Z" />
        <path class="cls-8" d="M86,195.76,73.69,140s-29.29,9.46-32.77,15.48-9.11,40.29-9.11,40.29Z" />
        <path class="cls-9" d="M79.12,145.14s21.8,24.08,39-.38" />
        <path class="cls-10"
          d="M68.53,96.44l.73-8.36a.76.76,0,0,1,.44-.64c1-.37,3.34-2.36,3.59-12.76,0,0-1.44-5.05,2.63-7.05l5.6-3.72s6.42,11.38,32.44.72c0,0,6.27,2.87,8.72,5.66,0,0,2.84,2.82,3.38,5.89s1.9,8.94,1.9,8.94a49.14,49.14,0,0,0,.86,5.14c.38.92,2.23,7.35,2.23,7.35s3.55-11.43,4.39-16.07,4.21-18.7-3.07-24.34a13,13,0,0,0-3.07-.43s-2.38-16.5-22.93-16c-.27,0-1-.6-1.21-.73a19.78,19.78,0,0,0-3.53-1.47,24.74,24.74,0,0,0-12.92-.37C76.26,41.06,64.62,50.64,62.53,63.61c-.67,4.15.37,8.3,1,12.45C66.17,94.89,67.23,92.3,68.53,96.44Z" />
        <path class="cls-11"
          d="M68.64,96.77l-.5-11.71s2.48,1.19,2.79-11.88c0,0,.92-5.93,5-7.93l5.6-3.72s12.39,9,32.44.72c0,0,6.27,2.87,8.72,5.66a6.83,6.83,0,0,1,3.12,4.5c.54,3.07,2.16,10.32,2.16,10.32A14.58,14.58,0,0,0,129.61,86c.69.72,1.44,11.62,1.44,11.62s4.08-13.86,4.92-18.5,3.68-18.65-3.6-24.29a13,13,0,0,0-3.07-.43s-2.38-16.5-22.93-16c-.27,0-1-.61-1.21-.74a21.38,21.38,0,0,0-3.53-1.47,24.74,24.74,0,0,0-12.92-.36C76.26,38.68,64.62,48.26,62.53,61.23a44.41,44.41,0,0,0-.08,12.56C64.94,93.77,68.64,96.77,68.64,96.77Z" />
      </g>
    </g>
  </g>
</svg>