<svg xmlns="http://www.w3.org/2000/svg" xmlns:xlink="http://www.w3.org/1999/xlink" fill="none" version="1.1"
  width="15.000000953674316" height="17.5" viewBox="0 0 15.000000953674316 17.5">
  <g>
    <path
      d="M2.5,5.83333L2.5,5C2.5,2.23858,4.73858,0,7.5,0C10.2614,0,12.5,2.23858,12.5,5L12.5,5.83333L14.1667,5.83333C14.6269,5.83333,15,6.20643,15,6.66667L15,16.6667C15,17.1269,14.6269,17.5,14.1667,17.5L0.833333,17.5C0.373096,17.5,0,17.1269,0,16.6667L0,6.66667C0,6.20643,0.373096,5.83333,0.833333,5.83333L2.5,5.83333ZM13.3333,7.5L1.66667,7.5L1.66667,15.8333L13.3333,15.8333L13.3333,7.5ZM6.66667,12.2767C5.76926,11.7585,5.55718,10.5558,6.22326,9.76198C6.88934,8.96817,8.11066,8.96817,8.77674,9.76198C9.44282,10.5558,9.23074,11.7585,8.33333,12.2767L8.33333,14.1667L6.66667,14.1667L6.66667,12.2767ZM4.16667,5.83333L10.8333,5.83333L10.8333,5C10.8333,3.15905,9.34095,1.66667,7.5,1.66667C5.65905,1.66667,4.16667,3.15905,4.16667,5L4.16667,5.83333Z"
      fill="currentColor" fill-opacity="1" />
  </g>
</svg>